HIERARCHY
ROOT hip
{
	OFFSET 0.000000 0.000000 0.000000 
	CHANNELS 6 Xposition Yposition Zposition Xrotation Zrotation Yrotation
	JOINT abdomen
	{
		OFFSET 0.000000 3.402643 0.000000 
		CHANNELS 3 Xrotation Zrotation Yrotation
		JOINT chest
		{
			OFFSET 0.000000 8.438565 -0.680529 
			CHANNELS 3 Xrotation Zrotation Yrotation
			JOINT neck
			{
				OFFSET 0.000000 10.207942 -0.272212 
				CHANNELS 3 Xrotation Zrotation Yrotation
				JOINT head
				{
					OFFSET 0.000000 3.130431 0.000000 
					CHANNELS 3 Xrotation Zrotation Yrotation
					End Site
					{
						OFFSET 0.000000 3.130435 0.000000 
					}
				}
			}
			JOINT lCollar
			{
				OFFSET 3.470700 6.669187 -0.816635 
				CHANNELS 3 Yrotation Zrotation Xrotation
				JOINT lShldr
				{
					OFFSET 3.198488 0.000000 0.000000 
					CHANNELS 3 Zrotation Yrotation Xrotation
					JOINT lForeArm
					{
						OFFSET 10.139888 0.000000 0.000000 
						CHANNELS 3 Yrotation Zrotation Xrotation
						JOINT lHand
						{
							OFFSET 8.370511 0.000000 0.000000 
							CHANNELS 3 Zrotation Yrotation Xrotation
							End Site
							{
								OFFSET 4.083176 0.000000 0.000000 
							}
						}
					}
				}
			}
			JOINT rCollar
			{
				OFFSET -3.470700 6.669187 -0.816635 
				CHANNELS 3 Yrotation Zrotation Xrotation
				JOINT rShldr
				{
					OFFSET -3.198488 0.000000 0.000000 
					CHANNELS 3 Zrotation Yrotation Xrotation
					JOINT rForeArm
					{
						OFFSET -10.139888 0.000000 0.000000 
						CHANNELS 3 Yrotation Zrotation Xrotation
						JOINT rHand
						{
							OFFSET -8.370511 0.000000 0.000000 
							CHANNELS 3 Zrotation Yrotation Xrotation
							End Site
							{
								OFFSET -4.083176 0.000000 0.000000 
							}
						}
					}
				}
			}
		}
	}
	JOINT lThigh
	{
		OFFSET 5.308129 -1.633274 1.361059 
		CHANNELS 3 Xrotation Zrotation Yrotation
		JOINT lShin
		{
			OFFSET -2.041588 -20.007561 0.000000 
			CHANNELS 3 Xrotation Zrotation Yrotation
			JOINT lFoot
			{
				OFFSET 0.000000 -19.190928 -1.224953 
				CHANNELS 3 Xrotation Yrotation Zrotation
				End Site
				{
					OFFSET 0.000000 -2.449906 4.627600 
				}
			}
		}
	}
	JOINT rThigh
	{
		OFFSET -5.308129 -1.633274 1.361059 
		CHANNELS 3 Xrotation Zrotation Yrotation
		JOINT rShin
		{
			OFFSET 2.041588 -20.007561 0.000000 
			CHANNELS 3 Xrotation Zrotation Yrotation
			JOINT rFoot
			{
				OFFSET 0.000000 -19.190928 -1.224953 
				CHANNELS 3 Xrotation Yrotation Zrotation
				End Site
				{
					OFFSET 0.000000 -2.449906 4.627600 
				}
			}
		}
	}
}
MOTION
Frames: 15
Frame Time: 0.016667
0.000000 45.192425 95.902382 -169.990189 0.156250 0.019558 45.159271 -0.537101 -0.322343 0.000000 0.000000 0.000000 -74.159882 -1.601563 -0.010035 5.588009 2.050767 -0.214706 0.000000 0.000000 0.000000 -86.713760 -162.480423 3.781089 -31.976015 -1.150371 94.681267 35.976032 2.078799 -6.697913 0.000000 0.000000 0.000000 84.684563 161.911942 4.169775 44.623962 -0.938196 89.855850 -37.056870 5.537989 -6.774994 51.834221 4.033471 -0.611139 57.928589 -2.810604 -3.702765 0.357582 0.234310 -0.110186 47.160221 -5.458496 -0.592867 58.260952 2.069348 4.378681 0.359562 0.179890 -0.120195 
0.000000 39.579960 106.406082 -152.411911 0.146484 0.078150 45.159271 -0.537101 -0.322343 0.000000 0.000000 0.000000 -74.159882 -1.601563 -0.010035 5.588009 2.050767 -0.214706 0.000000 0.000000 0.000000 -86.713760 -162.480423 3.781089 -30.230534 -1.202991 94.758560 11.204534 -1.064727 -7.094585 0.000000 0.000000 0.000000 84.684563 161.911942 4.169775 44.623962 -0.938196 89.855850 -12.064692 7.968458 -3.887693 51.834221 4.033467 -0.611140 57.928589 -2.810605 -3.702765 0.351446 0.245231 -0.106057 47.160221 -5.458498 -0.592867 58.260952 2.069347 4.378680 0.347033 0.185367 -0.118130 
0.000000 39.318451 116.453484 -135.009552 0.117187 0.107442 45.159271 -0.537101 -0.322343 0.000000 0.000000 0.000000 -74.159882 -1.601563 -0.010035 5.588009 2.050767 -0.214706 0.000000 0.000000 0.000000 -86.713760 -162.480423 3.781089 -28.475889 -1.237742 94.839630 -13.090940 -3.806195 -6.018327 0.000000 0.000000 0.000000 84.684563 161.911942 4.169775 44.623962 -0.938196 89.855850 12.843662 8.873489 -0.290799 51.834221 4.033469 -0.611139 57.928589 -2.810605 -3.702765 0.338402 0.185916 0.059449 47.160221 -5.458497 -0.592867 58.260952 2.069347 4.378680 0.345846 0.149166 0.056051 
0.000000 44.967918 123.305450 -112.519379 0.058594 0.146494 25.833099 -0.537101 -0.322343 0.000000 0.000000 0.000000 -66.251060 -1.552734 0.039048 5.588009 2.050767 -0.214706 0.000000 0.000000 0.000000 -94.877083 -115.792824 11.963142 -24.633379 -0.933918 65.078819 -3.337690 0.895505 -18.843718 0.000000 0.000000 0.000000 93.400024 114.443344 12.608193 36.971973 -3.670349 61.469959 15.398914 1.681845 12.850876 39.670765 4.023385 -0.252264 44.530182 -3.319875 -3.049819 -4.011032 0.200876 -0.116793 36.293999 -5.653826 -0.241490 45.194363 3.602623 3.880656 -4.360546 0.188901 0.079982 
0.000000 45.975418 130.155792 -90.205078 0.000000 0.000000 6.321381 -0.537101 -0.322343 0.000000 0.000000 0.000000 -58.176903 -1.503903 0.117147 5.588009 2.050767 -0.214706 0.000000 0.000000 0.000000 -69.543022 -67.308800 -13.552593 -21.211338 -2.746502 35.025196 5.272928 7.829271 -30.657967 0.000000 0.000000 0.000000 69.536201 65.436676 -11.773651 28.996441 -2.213896 32.807312 16.369726 -5.829011 25.832272 27.087519 3.837987 -0.513620 31.074003 -3.675876 -2.155343 -8.392474 0.302864 0.119518 25.020870 -5.623455 -0.339000 31.322359 4.334520 2.656295 -8.386973 0.405986 0.199706 
0.000000 46.662292 136.549728 -67.705078 0.000000 0.000000 -13.014648 -0.537101 -0.312578 0.000000 0.000000 0.000000 -50.258934 -1.474601 0.195248 5.588009 2.050767 -0.214706 0.000000 0.000000 0.000000 -79.200699 -20.654163 -3.859597 -19.216024 -5.779428 5.213166 12.453146 16.218386 -41.791294 0.000000 0.000000 0.000000 78.203873 18.002602 -3.660335 22.479610 2.903214 4.637887 15.789627 -13.272630 38.849808 14.579942 3.797353 -0.333690 17.682747 -3.902730 -1.230085 -12.792905 0.041707 0.010490 13.920329 -5.427981 -0.552886 17.674635 4.628210 1.630119 -12.808421 0.298465 0.164115 
0.000000 48.289200 143.399796 -55.380856 0.000000 0.000000 -1.774414 -0.537101 -0.312578 0.000000 0.000000 0.000000 -42.350697 -1.455062 0.273349 5.588009 2.050767 -0.214706 0.000000 0.000000 0.000000 -79.252106 -19.923746 -3.831302 -13.046623 -5.867948 5.469304 10.514260 9.997149 -30.044243 0.000000 0.000000 0.000000 78.157532 18.671450 -3.659132 15.087326 3.001528 4.763342 11.027409 -6.812915 24.510870 14.568490 3.798447 -0.352735 14.604203 -3.878726 -0.982973 -17.353247 0.025466 0.169578 14.640191 -5.436759 -0.358378 12.620707 4.850605 1.045485 -17.371027 0.171137 0.296200 
0.000000 48.658226 150.250214 -43.076168 0.000000 0.000000 9.475586 -0.537101 -0.312578 0.000000 0.000000 0.000000 -34.442402 -1.435520 0.351452 5.588009 2.050767 -0.214706 0.000000 0.000000 0.000000 -79.299232 -19.224361 -3.739701 -7.051321 -5.921206 5.741628 7.454106 4.184999 -18.172325 0.000000 0.000000 0.000000 78.156860 18.681005 -3.661031 7.528215 3.079737 4.903041 4.950377 -1.710348 9.555237 14.568488 3.798454 -0.352733 11.501659 -3.858548 -0.756168 -21.757811 0.007742 0.004771 15.567582 -5.456302 -0.339283 7.319837 4.821198 0.499386 -21.764889 0.232067 0.368363 
0.000000 47.421009 156.644119 -31.123049 0.000000 0.000000 20.715910 -0.537101 -0.322343 0.000000 0.000000 0.000000 -26.368435 -1.435505 0.439560 5.588009 2.050767 -0.214706 0.000000 0.000000 0.000000 -79.354721 -18.524843 -3.708091 -0.696977 -5.955328 6.037340 3.401466 -0.852304 -6.163711 0.000000 0.000000 0.000000 78.156860 18.681005 -3.661031 -0.042892 3.133475 5.075717 -2.045965 1.513454 -5.426087 14.931401 3.798456 -0.357420 8.386146 -4.042058 -0.551692 -26.317938 -0.073263 0.340389 16.158426 -5.419213 -0.326416 2.086452 4.982105 0.060640 -26.326582 0.085770 0.458841 
0.000000 45.482098 158.017303 -28.837893 0.000000 0.000000 56.389645 -0.537101 -0.312578 0.000000 0.000000 0.000000 -26.358669 -1.435505 0.439560 5.588009 2.050767 -0.214706 0.000000 0.000000 0.000000 -79.354721 -18.524843 -3.708091 -0.687263 -5.954307 6.037358 3.391611 -0.853931 -6.153819 0.000000 0.000000 0.000000 78.156860 18.681005 -3.661031 -0.042892 3.133475 5.075717 -2.056873 1.521897 -5.436424 -4.146853 3.756590 0.053430 39.886414 -3.029481 -2.617966 -23.173037 -0.253029 0.066218 -2.818538 -5.441992 -0.429190 35.382046 3.827131 2.836745 -26.335310 0.177744 0.509290 
0.000000 40.577728 159.387360 -26.738281 0.000000 0.000000 92.249115 -0.537101 -0.322343 0.000000 0.000000 0.000000 -26.358669 -1.435505 0.439560 5.588009 2.050767 -0.214706 0.000000 0.000000 0.000000 -79.354721 -18.524843 -3.708091 -0.687263 -5.954307 6.037358 3.391611 -0.853931 -6.153819 0.000000 0.000000 0.000000 78.156860 18.681005 -3.661031 -0.042892 3.133475 5.075717 -2.056873 1.521897 -5.436424 -23.779427 3.796803 0.294257 71.931725 -1.002996 -3.823496 -20.400307 0.058936 0.024154 -21.986185 -5.418515 -0.555791 68.405479 1.210963 4.576896 -26.345749 0.299882 0.201815 
0.000000 42.049751 160.301086 -24.277346 0.000000 0.000000 85.774506 -0.537101 -0.322343 0.000000 0.000000 0.000000 -26.358669 -1.435505 0.439560 5.588009 2.050767 -0.214706 0.000000 0.000000 0.000000 -79.354721 -18.524843 -3.708091 -0.687263 -5.954307 6.037358 3.391611 -0.853931 -6.153819 0.000000 0.000000 0.000000 78.156860 18.681005 -3.661031 -0.042892 3.133475 5.075717 -2.056873 1.521897 -5.436424 -21.132294 3.788747 0.190757 65.111481 -1.353299 -3.755404 -18.641703 0.169485 0.098193 -19.998556 -5.438837 -0.708950 62.094807 1.729691 4.454120 -23.874636 0.313651 0.201394 
0.000000 43.417496 161.214417 -21.992186 0.000000 0.000000 79.270508 -0.537101 -0.312578 0.000000 0.000000 0.000000 -26.358669 -1.435505 0.439560 5.588009 2.050767 -0.214706 0.000000 0.000000 0.000000 -78.245468 -18.449688 -4.077211 -0.687263 -5.954307 6.037358 3.391611 -0.853931 -6.153819 0.000000 0.000000 0.000000 77.231575 18.618502 -3.976844 -0.042892 3.133475 5.075717 -2.056873 1.521897 -5.436424 -19.163090 3.816506 0.119250 58.420219 -1.998279 -3.511830 -16.699205 -0.030606 0.016135 -17.641268 -5.418396 -0.623567 55.580658 2.275340 4.272777 -21.609877 0.222742 0.170656 
0.000000 44.676716 162.127823 -19.531250 0.000000 0.000000 72.766602 -0.537101 -0.312578 0.000000 0.000000 0.000000 -26.358669 -1.435505 0.439560 5.588009 2.050767 -0.214706 0.000000 0.000000 0.000000 -77.876068 -18.422241 -4.253936 -0.687263 -5.954307 6.037358 3.391611 -0.853931 -6.153819 0.000000 0.000000 0.000000 76.687775 18.570179 -4.158680 -0.042892 3.133475 5.075717 -2.056873 1.521897 -5.436424 -16.642857 3.796618 0.187848 51.379848 -2.203075 -3.467144 -14.918970 0.283263 0.130072 -15.415251 -5.437777 -0.587048 49.057652 2.795114 3.690109 -19.124887 0.452771 0.253760 
0.000000 45.791218 163.041199 -17.060547 0.000000 0.000000 66.262787 -0.537101 -0.322343 0.000000 0.000000 0.000000 -26.358669 -1.435505 0.439560 5.588009 2.050767 -0.214706 0.000000 0.000000 0.000000 -77.321358 -18.389837 -4.441244 -0.687263 -5.954307 6.037358 3.391611 -0.853931 -6.153819 0.000000 0.000000 0.000000 76.317932 18.544321 -4.276782 -0.042892 3.133475 5.075717 -2.056873 1.521897 -5.436424 -14.105055 3.767363 0.275902 44.498402 -2.720473 -3.212909 -13.011486 0.372463 0.192038 -13.151467 -5.448230 -0.687981 42.868019 3.359102 3.615442 -16.852350 0.295814 0.187413 
